{"title":"Zedd Ft. Foxes - Clarity [Music Video] 720p [Sbyky]","uid":8535014,"size":61580596,"categoryP":"video","categoryS":"music_videos","magnet":"?xt=urn:btih:3996e580717a97a66625cd9732c2b5300d1ee5ab&amp;dn=Zedd+Ft.+Foxes+-+Clarity+%5BMusic+Video%5D+720p+%5BSbyky%5D&amp;tr=udp%3A%2F%2Ftracker.openbittorrent.com%3A80&amp;tr=udp%3A%2F%2Fopen.demonii.com%3A1337&amp;tr=udp%3A%2F%2Ftracker.coppersurfer.tk%3A6969&amp;tr=udp%3A%2F%2Fexodus.desync.com%3A6969","seeders":2,"leechers":0,"uploader":"Sbyky","files":-1,"time":1370246769,"description":"[IMG]http://www.shotpix.com/images/58544606643935471406.jpg[/IMG]\n\nGeneral\nComplete name                            : Zedd Ft. Foxes - Clarity [Music Video] 720p [Sbyky].mp4\nFormat                                   : MPEG-4\nFormat profile                           : Base Media / Version 2\nCodec ID                                 : mp42\nFile size                                : 58.7 MiB\nDuration                                 : 4mn 35s\nOverall bit rate mode                    : Variable\nOverall bit rate                         : 1 789 Kbps\nEncoded date                             : UTC 2013-04-08 05:27:29\nTagged date                              : UTC 2013-04-08 05:27:29\n\nVideo\nID                                       : 1\nFormat                                   : AVC\nFormat/Info                              : Advanced Video Codec\nFormat profile                           : &lt;a class=&quot;__cf_email__&quot; href=&quot;/cdn-cgi/l/email-protection&quot; data-cfemail=&quot;357d5c525d7579061b04&quot;&gt;[email&amp;#160;protected]&lt;/a&gt;&lt;script cf-hash='f9e31' type=&quot;text/javascript&quot;&gt;\n/* &lt;![CDATA[ */!function(){try{var t=&quot;currentScript&quot;in document?document.currentScript:function(){for(var t=document.getElementsByTagName(&quot;script&quot;),e=t.length;e--;)if(t[e].getAttribute(&quot;cf-hash&quot;))return t[e]}();if(t&amp;&amp;t.previousSibling){var e,r,n,i,c=t.previousSibling,a=c.getAttribute(&quot;data-cfemail&quot;);if(a){for(e=&quot;&quot;,r=parseInt(a.substr(0,2),16),n=2;a.length-n;n+=2)i=parseInt(a.substr(n,2),16)^r,e+=String.fromCharCode(i);e=document.createTextNode(e),c.parentNode.replaceChild(e,c)}}}catch(u){}}();/* ]]&gt; */&lt;/script&gt;\nFormat settings, CABAC                   : Yes\nFormat settings, ReFrames                : 1 frame\nCodec ID                                 : avc1\nCodec ID/Info                            : Advanced Video Coding\nDuration                                 : 4mn 35s\nBit rate                                 : 1 594 Kbps\nMaximum bit rate                         : 7 862 Kbps\nWidth                                    : 1 280 pixels\nHeight                                   : 720 pixels\nDisplay aspect ratio                     : 16:9\nFrame rate mode                          : Constant\nFrame rate                               : 23.976 fps\nColor space                              : YUV\nChroma subsampling                       : 4:2:0\nBit depth                                : 8 bits\nScan type                                : Progressive\nBits/(Pixel*Frame)                       : 0.072\nStream size                              : 52.3 MiB (89%)\nTagged date                              : UTC 2013-04-08 05:27:35\n\nAudio\nID                                       : 2\nFormat                                   : AAC\nFormat/Info                              : Advanced Audio Codec\nFormat profile                           : LC\nCodec ID                                 : 40\nDuration                                 : 4mn 35s\nBit rate mode                            : Variable\nBit rate                                 : 192 Kbps\nMaximum bit rate                         : 203 Kbps\nChannel(s)                               : 2 channels\nChannel positions                        : Front: L R\nSampling rate                            : 44.1 KHz\nCompression mode                         : Lossy\nStream size                              : 6.30 MiB (11%)\nTitle                                    : IsoMedia File Produced by Google, 5-11-2011\nEncoded date                             : UTC 2013-04-08 05:27:33\nTagged date                              : UTC 2013-04-08 05:27:35\n\nShared By Sbyky\n[IMG]http://www.shotpix.com/images/76014917432015785852.gif[/IMG]\n[IMG]http://www.shotpix.com/images/54100788659511547411.gif[/IMG]","torrent":{"xt":"urn:btih:3996e580717a97a66625cd9732c2b5300d1ee5ab","amp;dn":"Zedd+Ft.+Foxes+-+Clarity+%5BMusic+Video%5D+720p+%5BSbyky%5D","amp;tr":["udp%3A%2F%2Ftracker.openbittorrent.com%3A80","udp%3A%2F%2Fopen.demonii.com%3A1337","udp%3A%2F%2Ftracker.coppersurfer.tk%3A6969","udp%3A%2F%2Fexodus.desync.com%3A6969"],"infoHash":"3996e580717a97a66625cd9732c2b5300d1ee5ab","infoHashBuffer":{"type":"Buffer","data":[57,150,229,128,113,122,151,166,102,37,205,151,50,194,181,48,13,30,229,171]},"announce":[],"urlList":[]}}